<svg xmlns="http://www.w3.org/2000/svg" version="1.1" xmlns:xlink="http://www.w3.org/1999/xlink" xmlns:svgjs="http://svgjs.dev/svgjs" width="2000" height="1252" viewBox="0 0 2000 1252"><g transform="matrix(1,0,0,1,-1.2121212121212466,-2.019354838709546)"><svg viewBox="0 0 396 248" data-background-color="#ffffff" preserveAspectRatio="xMidYMid meet" height="1252" width="2000" xmlns="http://www.w3.org/2000/svg" xmlns:xlink="http://www.w3.org/1999/xlink"><g id="tight-bounds" transform="matrix(1,0,0,1,0.2400000000000091,0.4000000000000057)"><svg viewBox="0 0 395.52 247.2" height="247.2" width="395.52"><g><svg></svg></g><g><svg viewBox="0 0 395.52 247.2" height="247.2" width="395.52"><g transform="matrix(1,0,0,1,75.54432,78.87496825760499)"><svg viewBox="0 0 244.43135999999998 89.45006348479" height="89.45006348479" width="244.43135999999998"><g><svg viewBox="0 0 410.7951553015945 150.33117158523274" height="89.45006348479" width="244.43135999999998"><g transform="matrix(1,0,0,1,0,15.064111107424466)"><svg viewBox="0 0 244.43135999999998 120.2029493703838" height="120.2029493703838" width="244.43135999999998"><g id="textblocktransform"><svg viewBox="0 0 244.43135999999998 120.2029493703838" height="120.2029493703838" width="244.43135999999998" id="textblock"><g><svg viewBox="0 0 244.43135999999998 64.8317271624161" height="64.8317271624161" width="244.43135999999998"><g transform="matrix(1,0,0,1,0,0)"><svg width="244.43135999999998" viewBox="5.4 -38.4 187.23999999999998 49.4" height="64.8317271624161" data-palette-color="#336a86"><g class="wordmark-text-0" data-fill-palette-color="primary" id="text-0"><path d="M11.1 0L5.4 0 5.4-36 11.1-36 11.1-20.5 24.3-36.35 30.25-35.65 18.4-21.8 31.05 0 24.5 0 14.65-17.45 11.1-13.25 11.1 0ZM52.55-26.35L57.95-27.05 57.95-6.25Q57.95-4.45 58.37-3.95 58.8-3.45 60.3-3.45L60.3-3.45 60.5-0.3Q59.25 0.15 57.85 0.15L57.85 0.15Q54.8 0.15 53.55-2.25L53.55-2.25Q50.3 0.6 45.4 0.6L45.4 0.6Q36.3 0.6 36.3-9.2L36.3-9.2 36.3-26.35 41.7-27.05 41.7-10.2Q41.7-3.6 46.95-3.6L46.95-3.6Q50.55-3.6 52.55-5.7L52.55-5.7 52.55-26.35ZM68.7-25.75L69.85-32.05 74.1-32.6 74.1-25.75 81.85-25.75 81.25-22.15 74.1-22.15 74.1-8.75Q74.1-6.05 74.92-4.83 75.75-3.6 77.5-3.6 79.25-3.6 81.45-4L81.45-4 82.1-0.35Q79 0.6 76.1 0.6L76.1 0.6Q72.05 0.6 70.37-1.55 68.7-3.7 68.7-7.65L68.7-7.65 68.7-22.15 64.95-22.15 64.95-25.25 68.7-25.75ZM98.42 0.6Q92.69 0.6 89.59-3.3 86.49-7.2 86.49-13.28 86.49-19.35 89.79-23.33 93.09-27.3 98.94-27.3L98.94-27.3Q103.84-27.3 107.94-25.2L107.94-25.2 106.44-21.55Q103.04-23.1 100.04-23.1L100.04-23.1Q96.04-23.1 94.12-20.45 92.19-17.8 92.19-13.8L92.19-13.8Q92.19-3.6 100.09-3.6L100.09-3.6Q103.04-3.6 106.24-5.3L106.24-5.3 107.99-1.8Q104.14 0.6 98.42 0.6ZM119.64-20.95L119.64 0 114.24 0 114.24-37.7 119.64-38.4 119.64-24.95Q123.59-27.3 127.39-27.3L127.39-27.3Q136.49-27.3 136.49-17.5L136.49-17.5 136.49 0 131.09 0 131.09-16.5Q131.09-23.1 125.84-23.1L125.84-23.1Q123.84-23.1 122.04-22.35 120.24-21.6 119.64-20.95L119.64-20.95ZM162.99-5.7L162.99-5.7 164.84-2.3Q163.99-1.5 161.24-0.45 158.49 0.6 155.34 0.6L155.34 0.6Q149.74 0.6 146.31-2.8 142.89-6.2 142.89-13L142.89-13Q142.89-16.75 144.09-19.63 145.29-22.5 147.19-24.1L147.19-24.1Q151.09-27.3 155.36-27.3 159.64-27.3 162.16-25.13 164.69-22.95 164.69-19.8L164.69-19.8Q164.69-15.65 160.74-13.03 156.79-10.4 148.09-10.4L148.09-10.4Q148.09-8.1 150.01-5.85 151.94-3.6 155.71-3.6 159.49-3.6 162.99-5.7ZM159.84-19.35L159.84-19.35Q159.84-20.85 158.71-21.98 157.59-23.1 155.54-23.1L155.54-23.1Q152.24-23.1 150.11-20.63 147.99-18.15 147.94-14.15L147.94-14.15Q159.84-14.15 159.84-19.35ZM171.54 9.45L172.69 5.4Q176.09 6.65 179.69 6.65 183.29 6.65 185.26 5 187.24 3.35 187.24-1.5L187.24-1.5Q184.09 0.6 179.89 0.6 175.69 0.6 173.34-2.23 170.99-5.05 170.99-9.2L170.99-9.2 170.99-26.35 176.39-27.05 176.39-10.2Q176.39-3.6 181.64-3.6L181.64-3.6Q185.69-3.6 187.24-5.85L187.24-5.85 187.24-26.35 192.64-27.05 192.64-1.6Q192.64 4.5 189.46 7.75 186.29 11 180.44 11L180.44 11Q176.84 11 175.06 10.5 173.29 10 172.46 9.73 171.64 9.45 171.54 9.45L171.54 9.45Z" fill="#336a86" data-fill-palette-color="primary"></path></g></svg></g></svg></g><g transform="matrix(1,0,0,1,117.95652555633892,80.13694198401065)"><svg viewBox="0 0 126.47483444366107 40.06600738637315" height="40.06600738637315" width="126.47483444366107"><g transform="matrix(1,0,0,1,0,0)"><svg width="126.47483444366107" viewBox="1.4 -33.8 107.78999999999999 34.15" height="40.06600738637315" data-palette-color="#8eaec4"><path d="M13.65 0.3Q9.2 0.3 6.08-1.63 2.95-3.55 1.7-6.65L1.7-6.65Q1.4-7.15 1.4-7.65L1.4-7.65Q1.4-8.35 1.9-8.83 2.4-9.3 3.1-9.3L3.1-9.3Q4.35-9.3 4.75-8L4.75-8Q5.6-5.65 8.08-4.17 10.55-2.7 13.65-2.7L13.65-2.7Q16.1-2.7 18.03-3.55 19.95-4.4 21.03-5.85 22.1-7.3 22.1-9.1L22.1-9.1Q22.1-11.4 20.2-13.1 18.3-14.8 13.75-16.05L13.75-16.05Q3.3-18.9 3.3-25.35L3.3-25.35Q3.3-27.8 4.67-29.7 6.05-31.6 8.68-32.7 11.3-33.8 14.8-33.8L14.8-33.8Q19.75-33.8 22.5-31.93 25.25-30.05 25.25-26.9L25.25-26.9Q25.25-26.25 24.8-25.78 24.35-25.3 23.7-25.3L23.7-25.3Q23.1-25.3 22.68-25.7 22.25-26.1 22.2-26.65L22.2-26.65Q21.95-28.55 19.93-29.75 17.9-30.95 14.65-30.95L14.65-30.95Q10.75-30.95 8.63-29.5 6.5-28.05 6.5-25.5L6.5-25.5Q6.5-23.35 8.47-21.85 10.45-20.35 14.55-19.2L14.55-19.2Q19.95-17.7 22.63-15.28 25.3-12.85 25.3-9.35L25.3-9.35Q25.3-6.65 23.7-4.42 22.1-2.2 19.4-0.95 16.7 0.3 13.65 0.3L13.65 0.3ZM34.35 0.35Q33.7 0.35 33.22-0.1 32.75-0.55 32.75-1.15L32.75-1.15 32.75-21.55 27.2-21.55Q26.55-21.55 26.1-22.03 25.65-22.5 25.65-23.15L25.65-23.15Q25.65-23.85 26.15-24.28 26.65-24.7 27.3-24.7L27.3-24.7 32.75-24.7 32.75-31.55Q32.75-32.2 33.22-32.68 33.7-33.15 34.35-33.15L34.35-33.15Q35.05-33.15 35.47-32.68 35.9-32.2 35.9-31.55L35.9-31.55 35.9-24.7 41.5-24.7Q42.2-24.7 42.65-24.25 43.1-23.8 43.1-23.15L43.1-23.15Q43.1-22.5 42.62-22.03 42.15-21.55 41.5-21.55L41.5-21.55 35.9-21.55 35.9-1.15Q35.9-0.55 35.42-0.1 34.95 0.35 34.35 0.35L34.35 0.35ZM52.9 0.3Q50.05 0.3 47.72-1.23 45.4-2.75 44.07-5.38 42.74-8 42.74-11.2L42.74-11.2Q42.74-14.6 44.27-17.7 45.8-20.8 48.5-22.73 51.2-24.65 54.45-24.65L54.45-24.65Q57.25-24.65 59.57-23.13 61.9-21.6 63.22-18.98 64.55-16.35 64.55-13.2L64.55-13.2Q64.55-9.6 62.95-6.5 61.34-3.4 58.67-1.55 56 0.3 52.9 0.3L52.9 0.3ZM53.09-2.55Q55.25-2.55 57.14-4 59.05-5.45 60.2-7.85 61.34-10.25 61.34-12.95L61.34-12.95Q61.34-15.3 60.4-17.32 59.45-19.35 57.82-20.58 56.2-21.8 54.2-21.8L54.2-21.8Q52-21.8 50.12-20.33 48.25-18.85 47.12-16.43 46-14 46-11.3L46-11.3Q46-8.7 46.97-6.73 47.95-4.75 49.59-3.65 51.25-2.55 53.09-2.55L53.09-2.55ZM72.39 0.3Q71.79 0.3 71.29-0.15 70.79-0.6 70.79-1.15L70.79-1.15 70.79-23.15Q70.79-23.8 71.27-24.23 71.74-24.65 72.39-24.65L72.39-24.65Q73.09-24.65 73.54-24.23 73.99-23.8 73.99-23.15L73.99-23.15 73.99-18.9Q75.39-21.35 77.47-23.08 79.54-24.8 82.34-24.8L82.34-24.8Q84.54-24.8 85.52-23.58 86.49-22.35 86.49-20.65L86.49-20.65 86.49-19.05Q86.49-18.4 86.04-17.98 85.59-17.55 84.94-17.55L84.94-17.55Q84.19-17.55 83.84-18 83.49-18.45 83.49-19.1L83.49-19.1 83.49-20.25Q83.49-21.7 81.79-21.7L81.79-21.7Q78.84-21.7 75.69-17.5L75.69-17.5Q74.94-16.5 74.47-15 73.99-13.5 73.99-12.2L73.99-12.2 73.94-1.15Q73.94-0.6 73.47-0.15 72.99 0.3 72.39 0.3L72.39 0.3ZM100.54 0.3Q96.89 0.3 94.04-1.33 91.19-2.95 89.64-5.7 88.09-8.45 88.09-11.7L88.09-11.7Q88.09-15.1 89.52-18.07 90.94-21.05 93.49-22.85 96.04-24.65 99.34-24.65L99.34-24.65Q102.34-24.65 104.47-23.5 106.59-22.35 107.67-20.75 108.74-19.15 108.74-17.9L108.74-17.9Q108.74-17 107.54-16.3L107.54-16.3 92.04-7.45Q93.29-5.05 95.44-3.83 97.59-2.6 100.49-2.6L100.49-2.6Q102.09-2.6 103.87-3.4 105.64-4.2 106.69-5.3L106.69-5.3Q107.04-5.8 107.69-5.8L107.69-5.8Q108.34-5.8 108.77-5.38 109.19-4.95 109.19-4.3L109.19-4.3Q109.19-3.8 108.79-3.3L108.79-3.3Q107.44-1.75 105.12-0.73 102.79 0.3 100.54 0.3L100.54 0.3ZM105.64-18.3Q104.94-20 103.44-20.85 101.94-21.7 99.39-21.7L99.39-21.7Q96.99-21.7 95.09-20.38 93.19-19.05 92.12-16.8 91.04-14.55 90.99-11.85L90.99-11.85Q90.99-10.85 91.09-10.25L91.09-10.25 105.64-18.3Z" opacity="1" transform="matrix(1,0,0,1,0,0)" fill="#8eaec4" class="slogan-text-1" data-fill-palette-color="secondary" id="text-1"></path></svg></g></svg></g></svg></g></svg></g><g transform="matrix(1,0,0,1,259.7365748215945,0)"><svg viewBox="0 0 151.05858048 150.33117158523274" height="150.33117158523274" width="151.05858048"><g><svg xmlns="http://www.w3.org/2000/svg" xmlns:xlink="http://www.w3.org/1999/xlink" version="1.1" x="0" y="0" viewBox="1.7 2 124.6 124" style="enable-background:new 0 0 128 128;" xml:space="preserve" height="150.33117158523274" width="151.05858048" class="icon-icon-0" data-fill-palette-color="accent" id="icon-0"><g fill="#283132" data-fill-palette-color="accent"><path d="M126.2 52.6C126.1 51.7 125.9 50.8 125.6 50L122 33.3C121.4 30.7 119.1 28.8 116.4 28.8H112.1V11.5C112.1 6.3 107.8 2 102.6 2H25.4C20.2 2 15.9 6.3 15.9 11.5V28.8H11.6C8.9 28.8 6.6 30.7 6 33.3L2.4 50C2.1 50.8 1.9 51.7 1.8 52.6 1.7 53.2 1.7 53.8 1.7 54.4 1.7 55.6 1.8 56.7 2.1 57.8 3.3 62.7 6.9 66.7 11.6 68.4V126H116.4V68.4C121.1 66.7 124.7 62.8 125.9 57.8 126.2 56.7 126.3 55.6 126.3 54.4 126.3 53.8 126.3 53.2 126.2 52.6M21.6 11.5C21.6 9.4 23.3 7.7 25.4 7.7H102.6C104.7 7.7 106.4 9.4 106.4 11.5V28.8H21.6zM17.9 102.6V69.1C22.2 68.7 25.9 66.5 28.4 63.2 31.1 66.8 35.4 69.2 40.3 69.2S49.5 66.8 52.2 63.2C54.9 66.8 59.2 69.2 64.1 69.2S73.3 66.8 76 63.2C78.7 66.8 83 69.2 87.9 69.2S97.1 66.8 99.8 63.2C102.2 66.5 106 68.7 110.3 69.1V102.6z" fill="#283132" data-fill-palette-color="accent"></path><g fill="#283132" data-fill-palette-color="accent"><g fill="#283132" data-fill-palette-color="accent"><rect x="26.9" y="78" width="19.3" height="15.6" fill="#283132" data-fill-palette-color="accent"></rect><rect x="54.3" y="78" width="19.3" height="15.6" fill="#283132" data-fill-palette-color="accent"></rect><rect x="81.8" y="78" width="19.3" height="15.6" fill="#283132" data-fill-palette-color="accent"></rect></g></g></g></svg></g></svg></g></svg></g></svg></g><g><path d="M245.816 0c68.262 0 123.6 55.338 123.6 123.6 0 68.262-55.338 123.6-123.6 123.6-50.746 0-94.35-30.582-113.386-74.322l1.9 0c18.925 42.753 61.722 72.582 111.486 72.583 67.302 0 121.861-54.559 121.86-121.861 0-67.302-54.559-121.861-121.86-121.861-49.764 0-92.56 29.829-111.486 72.583l-1.9 0c19.036-43.739 62.639-74.322 113.386-74.322z" fill="#336a86" stroke="transparent" data-fill-palette-color="tertiary"></path></g></svg></g><defs></defs></svg><rect width="395.52" height="247.2" fill="none" stroke="none" visibility="hidden"></rect></g></svg></g></svg>