<?xml version="1.0" encoding="UTF-8"?>
<!DOCTYPE svg PUBLIC "-//W3C//DTD SVG 1.1//EN" "http://www.w3.org/Graphics/SVG/1.1/DTD/svg11.dtd">
<svg xmlns="http://www.w3.org/2000/svg" version="1.1" width="466px" height="502px" style="shape-rendering:geometricPrecision; text-rendering:geometricPrecision; image-rendering:optimizeQuality; fill-rule:evenodd; clip-rule:evenodd" xmlns:xlink="http://www.w3.org/1999/xlink">
<g><path style="opacity:1" fill="#fefefe" d="M 82.5,20.5 C 182.544,20.0091 282.544,20.5091 382.5,22C 395.926,27.3392 403.759,37.1726 406,51.5C 406.5,73.4975 406.667,95.4975 406.5,117.5C 413.896,117.2 421.229,117.7 428.5,119C 433.549,120.717 437.382,123.884 440,128.5C 446.134,152.704 451.801,177.038 457,201.5C 460.256,225.431 452.089,244.264 432.5,258C 429.029,260.072 425.362,261.572 421.5,262.5C 421.5,332.5 421.5,402.5 421.5,472.5C 294.167,472.5 166.833,472.5 39.5,472.5C 39.5,402.5 39.5,332.5 39.5,262.5C 13.0802,251.351 1.2469,231.351 4,202.5C 8.92112,181.228 13.5878,159.895 18,138.5C 19.0945,129.116 23.9279,122.616 32.5,119C 39.771,117.7 47.1044,117.2 54.5,117.5C 54.3334,96.4974 54.5,75.4974 55,54.5C 56.8541,37.0682 66.0208,25.7349 82.5,20.5 Z M 89.5,41.5 C 185.203,41.0119 280.869,41.5119 376.5,43C 380.058,44.8917 382.558,47.7251 384,51.5C 384.5,73.4975 384.667,95.4975 384.5,117.5C 281.833,117.5 179.167,117.5 76.5,117.5C 76.3334,95.8308 76.5,74.1641 77,52.5C 78.8906,46.1527 83.0573,42.4861 89.5,41.5 Z M 100.5,244.5 C 121.752,267.714 146.419,271.88 174.5,257C 179.301,253.201 183.801,249.034 188,244.5C 205.051,264.719 226.218,270.552 251.5,262C 260.616,258.198 268.116,252.365 274,244.5C 296.086,268.134 321.253,271.968 349.5,256C 354,252.833 357.833,249 361,244.5C 370.441,256.807 382.941,263.807 398.5,265.5C 398.5,305.833 398.5,346.167 398.5,386.5C 286.833,386.5 175.167,386.5 63.5,386.5C 63.5,346.167 63.5,305.833 63.5,265.5C 79.0558,263.896 91.3891,256.896 100.5,244.5 Z"/></g>
<g><path style="opacity:0.996" fill="#fefefe" d="M 95.5,296.5 C 118.836,296.333 142.169,296.5 165.5,297C 166.493,316.09 166.826,335.257 166.5,354.5C 142.833,354.5 119.167,354.5 95.5,354.5C 95.5,335.167 95.5,315.833 95.5,296.5 Z"/></g>
<g><path style="opacity:0.996" fill="#fefefe" d="M 195.5,296.5 C 218.836,296.333 242.169,296.5 265.5,297C 266.493,316.09 266.826,335.257 266.5,354.5C 242.5,354.5 218.5,354.5 194.5,354.5C 194.18,335.091 194.513,315.757 195.5,296.5 Z"/></g>
<g><path style="opacity:0.996" fill="#fefefe" d="M 295.5,296.5 C 318.836,296.333 342.169,296.5 365.5,297C 366.493,316.09 366.826,335.257 366.5,354.5C 342.5,354.5 318.5,354.5 294.5,354.5C 294.18,335.091 294.513,315.757 295.5,296.5 Z"/></g>
</svg>
